<svg id="Layer_1" data-name="Layer 1" xmlns="http://www.w3.org/2000/svg" viewBox="0 0 180.44 231.46"><defs><style>.cls-1{fill:#fff;}</style></defs><title>SugarCosmetics-Logo</title><path class="cls-1" d="M4.85,222.44c.21,3.36,3.87,4.6,7.1,4.6s6.89-.94,6.89-4.64c0-3.91-4-4.29-7.49-4.63C5.91,217.3.51,215.56.51,209.6c0-6.12,5.4-9,11.19-9s11,2.55,11.14,8.63H18.16C17.94,206,14.58,205,11.65,205c-2.72,0-6.25,1.11-6.25,4.46s3.36,3.79,6.8,4.26c6,.68,11.57,1.87,11.57,8.71,0,6.55-6.17,9-11.73,9-5.83.13-11.91-2.77-12-9Z"/><path class="cls-1" d="M37.82,221.09V201.31h4.93V221c0,3.91,2.94,6.08,6.72,6.08s6.63-2.17,6.63-6.08V201.31H61v19.78c0,6.63-5.2,10.37-11.53,10.37S37.82,227.72,37.82,221.09Z"/><path class="cls-1" d="M89.92,200.93c5.91,0,11.53,2.72,13.36,9.32h-4.9c-1.65-3.45-4.55-4.85-8.5-4.85-6.25,0-10,4.8-10,10.76,0,6.29,3.86,10.8,10,10.8,5.1,0,8.8-2,9.61-7.74H90.22V215h14a19.92,19.92,0,0,1-1.07,8.08c-2.25,5.65-7.35,8.37-13.22,8.37-8.12,0-15-5.74-15-15.3S81.93,200.93,89.92,200.93Z"/><path class="cls-1" d="M122.76,225.11l-2.89,6.16h-5.2v-.63l13.78-29.34h2.3l13.69,29.34v.63H139.3l-2.94-6.16Zm1.61-4.17h10.42L129.61,209Z"/><path class="cls-1" d="M180.44,230.55v.72h-5L168,220.9h-6.55v10.37h-5V201.51h12.29c6.47,0,10.33,4.37,10.33,9.69a9.34,9.34,0,0,1-6.24,8.93Zm-11.69-13.74a5.51,5.51,0,1,0,0-11h-7.36v11Z"/><path class="cls-1" d="M90.22,0a90.22,90.22,0,1,0,90.22,90.22A90.22,90.22,0,0,0,90.22,0Zm10.7,55.78a17.56,17.56,0,0,1,2.87-2.91,20.06,20.06,0,0,0,3.1-3,11.67,11.67,0,0,0,2.6-6.27,7.42,7.42,0,0,0-1.8-5.87,9.45,9.45,0,0,0-3-2.52,30.08,30.08,0,0,1,6.88,3.53l-.06,0-.37-.24-.37-.25-.71-.46-.21-.14.21.14.71.46.37.25.37.24.06,0,.73.49a26,26,0,0,1,9.32,10.58,21.53,21.53,0,0,1,1.75,6.44,23.1,23.1,0,0,1-.33,7.6,14.3,14.3,0,0,1-3,6.22A12.16,12.16,0,0,1,114,74a13.28,13.28,0,0,1-7.67-.19,11.64,11.64,0,0,1-5.94-4.54,12,12,0,0,1-1.92-7A11,11,0,0,1,100.92,55.78ZM77.43,124.66a17.56,17.56,0,0,1-2.87,2.91,20.06,20.06,0,0,0-3.1,3,11.6,11.6,0,0,0-2.6,6.27,7.41,7.41,0,0,0,1.8,5.87,9,9,0,0,0,3,2.52,29.34,29.34,0,0,1-6.89-3.53l-.73-.49a26,26,0,0,1-9.33-10.57A21.89,21.89,0,0,1,55,124.21a23.43,23.43,0,0,1,.32-7.61,14.43,14.43,0,0,1,3-6.22,12.13,12.13,0,0,1,6-3.94,13.27,13.27,0,0,1,7.67.19,11.71,11.71,0,0,1,6,4.53,12.19,12.19,0,0,1,1.92,7A11.08,11.08,0,0,1,77.43,124.66Zm46.18-8.73a32,32,0,0,1-3.8,13.95,29.62,29.62,0,0,1-10,10.6,29.3,29.3,0,0,0,5.27-6.69,11.16,11.16,0,0,0,.32-10.36c-8-18-42.62-26.17-51.25-35h0a30,30,0,0,1-6.64-9A32.69,32.69,0,0,1,54.84,64a32.12,32.12,0,0,1,3.8-14,29.7,29.7,0,0,1,10-10.6,29.52,29.52,0,0,0-5.27,6.69A11.16,11.16,0,0,0,63,56.48c8,18,42.6,26.17,51.24,35a30.38,30.38,0,0,1,6.65,9A32.64,32.64,0,0,1,123.61,115.93Z"/></svg>