<svg width="21" height="22" viewBox="0 0 21 22" fill="none" xmlns="http://www.w3.org/2000/svg">
<path id="Chat" fill-rule="evenodd" clip-rule="evenodd" d="M4.03846 15.369V22L10.9245 15.369H17.7685C19.5533 15.369 21 13.9219 21 12.1337V3.23528C21 1.44836 19.5525 0 17.7685 0H3.2315C1.44673 0 0 1.44703 0 3.23528V12.1337C0 13.9206 1.44748 15.369 3.2315 15.369H4.03846ZM17.7685 13.7512H10.2738L5.65385 18.2001V13.7512H3.2315C2.33952 13.7512 1.61538 13.027 1.61538 12.1337V3.23528C1.61538 2.34045 2.33894 1.61779 3.2315 1.61779H17.7685C18.6605 1.61779 19.3846 2.34196 19.3846 3.23528V12.1337C19.3846 13.0285 18.6611 13.7512 17.7685 13.7512Z" fill="#434CCC"/>
</svg>
