<svg width="18" height="15" viewBox="0 0 18 15" fill="none" xmlns="http://www.w3.org/2000/svg">
<path id="Path" opacity="0.31829" fill-rule="evenodd" clip-rule="evenodd" d="M18 1.77579C17.3377 2.07727 16.626 2.2803 15.879 2.37182C16.6418 1.90346 17.2275 1.1613 17.5028 0.276866C16.7895 0.710624 15.999 1.02594 15.1575 1.19591C14.4848 0.459906 13.524 0 12.462 0C10.0778 0 8.32575 2.28107 8.86425 4.64905C5.796 4.49139 3.075 2.984 1.25325 0.692935C0.28575 2.39489 0.7515 4.62136 2.3955 5.74882C1.791 5.72883 1.221 5.55886 0.72375 5.27507C0.68325 7.02933 1.9095 8.67053 3.6855 9.03584C3.16575 9.18042 2.5965 9.21426 2.0175 9.10044C2.487 10.6047 3.8505 11.6991 5.4675 11.7299C3.915 12.9781 1.959 13.5357 0 13.2988C1.63425 14.3732 3.576 15 5.661 15C12.5175 15 16.3912 9.06199 16.1572 3.73616C16.8787 3.20165 17.505 2.53486 18 1.77579Z" fill="black"/>
</svg>
